<?xml version="1.0" encoding="utf-8"?>
<!-- Generator: Adobe Illustrator 15.0.0, SVG Export Plug-In . SVG Version: 6.00 Build 0)  -->
<!DOCTYPE svg PUBLIC "-//W3C//DTD SVG 1.1//EN" "http://www.w3.org/Graphics/SVG/1.1/DTD/svg11.dtd">
<svg version="1.1" id="Layer_1" xmlns="http://www.w3.org/2000/svg" xmlns:xlink="http://www.w3.org/1999/xlink" x="0px" y="0px"
	 width="400px" height="150px" viewBox="0 0 400 150" enable-background="new 0 0 400 150" xml:space="preserve">
<g>
	<defs>
		<rect id="SVGID_1_" x="10" y="10.132" width="380" height="129.736"/>
	</defs>
	<clipPath id="SVGID_2_">
		<use xlink:href="#SVGID_1_"  overflow="visible"/>
	</clipPath>
	<path clip-path="url(#SVGID_2_)" fill="#FFFFFF" d="M377.66,26.608h-1.914V15.012h4.417c2.816,0,4.22,0.983,4.22,3.326
		c0,2.086-1.289,2.972-3.02,3.164l3.255,5.107h-2.164l-2.993-4.951h-1.801V26.608z M379.813,20.033c1.412,0,2.668-0.156,2.668-1.834
		c0-1.409-1.364-1.565-2.528-1.565h-2.292v3.4H379.813z M379.736,31.107c-6.021,0-10.31-4.536-10.31-10.494
		c0-6.301,4.771-10.48,10.31-10.48c5.493,0,10.264,4.179,10.264,10.48C390,26.9,385.229,31.107,379.736,31.107 M379.736,11.957
		c-4.536,0-8.068,3.545-8.068,8.656c0,4.771,3.088,8.659,8.068,8.659c4.489,0,8.021-3.534,8.021-8.659
		C387.758,15.502,384.226,11.957,379.736,11.957"/>
	<path clip-path="url(#SVGID_2_)" fill="#FFFFFF" fill-rule="evenodd" d="M10.003,12.841h354.969v127.025H10.003V12.841z M187.488,134.267
		c95.436,0,172.821-25.941,172.821-57.918c0-31.978-77.385-57.902-172.821-57.902c-95.433,0-172.809,25.924-172.809,57.902
		C14.679,108.325,92.055,134.267,187.488,134.267"/>
	<path clip-path="url(#SVGID_2_)" fill="#FFFFFF" d="M146.893,95.858c0,0,0.416-0.531,0.498-0.859
		c0.228-1.067-0.228-2.103-0.228-2.103l-9.614-15.039V77.76l0.018,15.807l0.259,1.433l0.506,0.859h-30.162l0.497-0.859l0.26-1.433
		l-0.012-41.209l-0.262-1.434l-0.494-0.863h30.174l-0.506,0.882l-0.259,1.426l-0.018,14.808l10.929-14.273
		c0,0,0.225-0.546,0.225-1.353c0-0.508-0.497-1.33-0.497-1.33l30.031,0.038L165.17,68.842l15.748,25.167l1.179,1.085l1.341,0.765
		H146.893z"/>
	<polygon clip-path="url(#SVGID_2_)" fill="#FFFFFF" points="62.037,95.858 62.533,94.999 62.782,93.566 62.782,52.357 
		62.519,50.924 62.025,50.061 92.195,50.061 91.693,50.943 91.438,52.369 91.426,93.633 91.693,95.066 92.183,95.925 	"/>
	<polygon clip-path="url(#SVGID_2_)" fill="#FFFFFF" points="237.398,79.084 236.516,78.569 235.079,78.31 218.236,78.33 
		218.236,82.377 240.319,82.377 241.856,82.133 242.612,81.581 242.662,95.95 189.805,95.856 190.313,95.001 190.547,93.568 
		190.547,52.357 190.3,50.926 189.779,50.056 242.455,50.155 242.493,63.965 241.634,63.456 240.199,63.21 218.236,63.21 
		218.236,67.169 235.079,67.105 236.516,66.855 237.389,66.363 	"/>
	<path clip-path="url(#SVGID_2_)" fill="#FFFFFF" d="M285.449,69.788l-3.546,7.978h7.105L285.449,69.788z M267.298,52.421
		c0,0,0.224-0.806,0.128-1.448c-0.087-0.628-0.505-0.868-0.505-0.868l40.885,0.012c0,0-0.421,0.228-0.509,0.871
		c-0.091,0.627,0.131,1.444,0.131,1.444l17.85,41.817l0.568,0.889l0.786,0.72l-32.288,0.055c0,0,0.495-1.044,0.444-1.479
		c-0.05-0.464-0.211-1.193-0.211-1.193l-2.097-6.007h-14.054l-2.298,6.007c0,0-0.218,0.297-0.218,0.749
		c0,0.88,0.53,1.869,0.53,1.869h-26.037c0,0,0.895-0.533,1.39-1.616c0.404-0.856,0.326-0.896,0.326-0.896L267.298,52.421z"/>
</g>
</svg>
